<?xml version="1.0" encoding="utf-8" standalone="no"?>
<!DOCTYPE svg PUBLIC "-//W3C//DTD SVG 1.1//EN"
  "http://www.w3.org/Graphics/SVG/1.1/DTD/svg11.dtd">
<svg xmlns:xlink="http://www.w3.org/1999/xlink" width="639.772969pt" height="251.794062pt" viewBox="0 0 639.772969 251.794062" xmlns="http://www.w3.org/2000/svg" version="1.1">
 <metadata>
  <rdf:RDF xmlns:dc="http://purl.org/dc/elements/1.1/" xmlns:cc="http://creativecommons.org/ns#" xmlns:rdf="http://www.w3.org/1999/02/22-rdf-syntax-ns#">
   <cc:Work>
    <dc:type rdf:resource="http://purl.org/dc/dcmitype/StillImage"/>
    <dc:date>2026-08-06T13:41:49.607860</dc:date>
    <dc:format>image/svg+xml</dc:format>
    <dc:creator>
     <cc:Agent>
      <dc:title>Matplotlib v3.9.2, https://matplotlib.org/</dc:title>
     </cc:Agent>
    </dc:creator>
   </cc:Work>
  </rdf:RDF>
 </metadata>
 <defs>
  <style type="text/css">*{stroke-linejoin: round; stroke-linecap: butt}</style>
 </defs>
 <g id="figure_1">
  <g id="patch_1">
   <path d="M 0 251.794062 
L 639.772969 251.794062 
L 639.772969 0 
L 0 0 
L 0 251.794062 
z
" style="fill: none; opacity: 0"/>
  </g>
  <g id="axes_1">
   <g id="patch_2">
    <path d="M 34.6925 213.55 
L 625.62375 213.55 
L 625.62375 7.2 
L 34.6925 7.2 
L 34.6925 213.55 
z
" style="fill: none; opacity: 0"/>
   </g>
   <g id="matplotlib.axis_1">
    <g id="xtick_1">
     <g id="line2d_1">
      <path d="M 122.703537 213.55 
L 122.703537 7.2 
" clip-path="url(#pdae18b7ef3)" style="fill: none; stroke: #d7d2c5; stroke-opacity: 0.5; stroke-width: 0.8; stroke-linecap: square"/>
     </g>
     <g id="line2d_2">
      <defs>
       <path id="mcf3ce3e05c" d="M 0 0 
L 0 3.5 
" style="stroke: #5c6473; stroke-width: 0.8"/>
      </defs>
      <g>
       <use xlink:href="#mcf3ce3e05c" x="122.703537" y="213.55" style="fill: #5c6473; stroke: #5c6473; stroke-width: 0.8"/>
      </g>
     </g>
     <g id="text_1">
      <!-- 0.0 -->
      <g style="fill: #5c6473" transform="translate(115.754318 227.690625) scale(0.1 -0.1)">
       <defs>
        <path id="HelveticaNeue-30" d="M 845 2234 
Q 845 2400 848 2601 
Q 851 2803 880 3004 
Q 909 3206 963 3398 
Q 1018 3590 1123 3734 
Q 1229 3878 1389 3968 
Q 1549 4058 1779 4058 
Q 2010 4058 2170 3968 
Q 2330 3878 2435 3734 
Q 2541 3590 2595 3398 
Q 2650 3206 2678 3004 
Q 2707 2803 2710 2601 
Q 2714 2400 2714 2234 
Q 2714 1978 2698 1661 
Q 2682 1344 2595 1065 
Q 2509 787 2317 595 
Q 2125 403 1779 403 
Q 1434 403 1242 595 
Q 1050 787 963 1065 
Q 877 1344 861 1661 
Q 845 1978 845 2234 
z
M 269 2227 
Q 269 1978 281 1709 
Q 294 1440 345 1184 
Q 397 928 493 701 
Q 589 474 755 301 
Q 922 128 1174 29 
Q 1427 -70 1779 -70 
Q 2138 -70 2387 29 
Q 2637 128 2803 301 
Q 2970 474 3066 701 
Q 3162 928 3213 1184 
Q 3264 1440 3277 1709 
Q 3290 1978 3290 2227 
Q 3290 2477 3277 2745 
Q 3264 3014 3213 3270 
Q 3162 3526 3066 3756 
Q 2970 3987 2803 4160 
Q 2637 4333 2384 4435 
Q 2131 4538 1779 4538 
Q 1427 4538 1174 4435 
Q 922 4333 755 4160 
Q 589 3987 493 3756 
Q 397 3526 345 3270 
Q 294 3014 281 2745 
Q 269 2477 269 2227 
z
" transform="scale(0.015625)"/>
        <path id="HelveticaNeue-2e" d="M 531 710 
L 531 0 
L 1242 0 
L 1242 710 
L 531 710 
z
" transform="scale(0.015625)"/>
       </defs>
       <use xlink:href="#HelveticaNeue-30"/>
       <use xlink:href="#HelveticaNeue-2e" x="55.599991"/>
       <use xlink:href="#HelveticaNeue-30" x="83.399979"/>
      </g>
     </g>
    </g>
    <g id="xtick_2">
     <g id="line2d_3">
      <path d="M 248.43359 213.55 
L 248.43359 7.2 
" clip-path="url(#pdae18b7ef3)" style="fill: none; stroke: #d7d2c5; stroke-opacity: 0.5; stroke-width: 0.8; stroke-linecap: square"/>
     </g>
     <g id="line2d_4">
      <g>
       <use xlink:href="#mcf3ce3e05c" x="248.43359" y="213.55" style="fill: #5c6473; stroke: #5c6473; stroke-width: 0.8"/>
      </g>
     </g>
     <g id="text_2">
      <!-- 0.5 -->
      <g style="fill: #5c6473" transform="translate(241.484372 227.690625) scale(0.1 -0.1)">
       <defs>
        <path id="HelveticaNeue-35" d="M 3008 3981 
L 3008 4461 
L 768 4461 
L 346 2106 
L 813 2080 
Q 973 2272 1181 2390 
Q 1389 2509 1658 2509 
Q 1888 2509 2077 2432 
Q 2266 2355 2400 2217 
Q 2534 2080 2608 1891 
Q 2682 1702 2682 1478 
Q 2682 1210 2605 1008 
Q 2528 806 2397 672 
Q 2266 538 2090 470 
Q 1914 403 1722 403 
Q 1517 403 1347 464 
Q 1178 525 1053 637 
Q 928 749 854 899 
Q 781 1050 768 1222 
L 224 1222 
Q 230 915 345 672 
Q 461 429 659 265 
Q 858 102 1117 16 
Q 1376 -70 1670 -70 
Q 2067 -70 2364 54 
Q 2662 179 2860 390 
Q 3059 602 3158 874 
Q 3258 1146 3258 1434 
Q 3258 1824 3142 2115 
Q 3027 2406 2828 2601 
Q 2630 2797 2361 2893 
Q 2093 2989 1792 2989 
Q 1562 2989 1328 2909 
Q 1094 2829 947 2662 
L 934 2675 
L 1178 3981 
L 3008 3981 
z
" transform="scale(0.015625)"/>
       </defs>
       <use xlink:href="#HelveticaNeue-30"/>
       <use xlink:href="#HelveticaNeue-2e" x="55.599991"/>
       <use xlink:href="#HelveticaNeue-35" x="83.399979"/>
      </g>
     </g>
    </g>
    <g id="xtick_3">
     <g id="line2d_5">
      <path d="M 374.163644 213.55 
L 374.163644 7.2 
" clip-path="url(#pdae18b7ef3)" style="fill: none; stroke: #d7d2c5; stroke-opacity: 0.5; stroke-width: 0.8; stroke-linecap: square"/>
     </g>
     <g id="line2d_6">
      <g>
       <use xlink:href="#mcf3ce3e05c" x="374.163644" y="213.55" style="fill: #5c6473; stroke: #5c6473; stroke-width: 0.8"/>
      </g>
     </g>
     <g id="text_3">
      <!-- 1.0 -->
      <g style="fill: #5c6473" transform="translate(367.214425 227.690625) scale(0.1 -0.1)">
       <defs>
        <path id="HelveticaNeue-31" d="M 2278 0 
L 2278 4538 
L 1862 4538 
Q 1818 4282 1696 4115 
Q 1574 3949 1398 3853 
Q 1222 3757 1004 3721 
Q 787 3686 557 3686 
L 557 3251 
L 1734 3251 
L 1734 0 
L 2278 0 
z
" transform="scale(0.015625)"/>
       </defs>
       <use xlink:href="#HelveticaNeue-31"/>
       <use xlink:href="#HelveticaNeue-2e" x="55.599991"/>
       <use xlink:href="#HelveticaNeue-30" x="83.399979"/>
      </g>
     </g>
    </g>
    <g id="xtick_4">
     <g id="line2d_7">
      <path d="M 499.893697 213.55 
L 499.893697 7.2 
" clip-path="url(#pdae18b7ef3)" style="fill: none; stroke: #d7d2c5; stroke-opacity: 0.5; stroke-width: 0.8; stroke-linecap: square"/>
     </g>
     <g id="line2d_8">
      <g>
       <use xlink:href="#mcf3ce3e05c" x="499.893697" y="213.55" style="fill: #5c6473; stroke: #5c6473; stroke-width: 0.8"/>
      </g>
     </g>
     <g id="text_4">
      <!-- 1.5 -->
      <g style="fill: #5c6473" transform="translate(492.944478 227.690625) scale(0.1 -0.1)">
       <use xlink:href="#HelveticaNeue-31"/>
       <use xlink:href="#HelveticaNeue-2e" x="55.599991"/>
       <use xlink:href="#HelveticaNeue-35" x="83.399979"/>
      </g>
     </g>
    </g>
    <g id="xtick_5">
     <g id="line2d_9">
      <path d="M 625.62375 213.55 
L 625.62375 7.2 
" clip-path="url(#pdae18b7ef3)" style="fill: none; stroke: #d7d2c5; stroke-opacity: 0.5; stroke-width: 0.8; stroke-linecap: square"/>
     </g>
     <g id="line2d_10">
      <g>
       <use xlink:href="#mcf3ce3e05c" x="625.62375" y="213.55" style="fill: #5c6473; stroke: #5c6473; stroke-width: 0.8"/>
      </g>
     </g>
     <g id="text_5">
      <!-- 2.0 -->
      <g style="fill: #5c6473" transform="translate(618.674531 227.690625) scale(0.1 -0.1)">
       <defs>
        <path id="HelveticaNeue-32" d="M 282 2931 
L 826 2931 
Q 819 3136 867 3337 
Q 915 3539 1024 3699 
Q 1133 3859 1302 3958 
Q 1472 4058 1709 4058 
Q 1888 4058 2048 4000 
Q 2208 3942 2326 3833 
Q 2445 3725 2515 3574 
Q 2586 3424 2586 3238 
Q 2586 3002 2512 2822 
Q 2438 2643 2294 2489 
Q 2150 2336 1932 2185 
Q 1715 2035 1427 1856 
Q 1190 1715 972 1555 
Q 755 1395 582 1184 
Q 410 973 298 688 
Q 186 403 154 0 
L 3117 0 
L 3117 480 
L 787 480 
Q 826 691 950 854 
Q 1075 1018 1251 1158 
Q 1427 1299 1638 1424 
Q 1850 1549 2061 1677 
Q 2272 1811 2470 1958 
Q 2669 2106 2822 2288 
Q 2976 2470 3069 2700 
Q 3162 2931 3162 3232 
Q 3162 3552 3050 3795 
Q 2938 4038 2746 4201 
Q 2554 4365 2294 4451 
Q 2035 4538 1741 4538 
Q 1382 4538 1100 4416 
Q 819 4294 630 4080 
Q 442 3866 352 3571 
Q 262 3277 282 2931 
z
" transform="scale(0.015625)"/>
       </defs>
       <use xlink:href="#HelveticaNeue-32"/>
       <use xlink:href="#HelveticaNeue-2e" x="55.599991"/>
       <use xlink:href="#HelveticaNeue-30" x="83.399979"/>
      </g>
     </g>
    </g>
    <g id="text_6">
     <!-- $w$ -->
     <g style="fill: #0e1a2b" transform="translate(325.238125 242.229687) scale(0.12 -0.12)">
      <defs>
       <path id="DejaVuSans-Oblique-77" d="M 544 3500 
L 1113 3500 
L 1259 684 
L 2566 3500 
L 3231 3500 
L 3425 684 
L 4666 3500 
L 5241 3500 
L 3641 0 
L 2969 0 
L 2797 2900 
L 1459 0 
L 781 0 
L 544 3500 
z
" transform="scale(0.015625)"/>
      </defs>
      <use xlink:href="#DejaVuSans-Oblique-77" transform="translate(0 0.3125)"/>
     </g>
    </g>
   </g>
   <g id="matplotlib.axis_2">
    <g id="ytick_1">
     <g id="line2d_11">
      <path d="M 34.6925 202.523664 
L 625.62375 202.523664 
" clip-path="url(#pdae18b7ef3)" style="fill: none; stroke: #d7d2c5; stroke-opacity: 0.5; stroke-width: 0.8; stroke-linecap: square"/>
     </g>
     <g id="line2d_12">
      <defs>
       <path id="mcfd844ca1e" d="M 0 0 
L -3.5 0 
" style="stroke: #5c6473; stroke-width: 0.8"/>
      </defs>
      <g>
       <use xlink:href="#mcfd844ca1e" x="34.6925" y="202.523664" style="fill: #5c6473; stroke: #5c6473; stroke-width: 0.8"/>
      </g>
     </g>
     <g id="text_7">
      <!-- 0 -->
      <g style="fill: #5c6473" transform="translate(22.133125 206.093977) scale(0.1 -0.1)">
       <use xlink:href="#HelveticaNeue-30"/>
      </g>
     </g>
    </g>
    <g id="ytick_2">
     <g id="line2d_13">
      <path d="M 34.6925 171.019847 
L 625.62375 171.019847 
" clip-path="url(#pdae18b7ef3)" style="fill: none; stroke: #d7d2c5; stroke-opacity: 0.5; stroke-width: 0.8; stroke-linecap: square"/>
     </g>
     <g id="line2d_14">
      <g>
       <use xlink:href="#mcfd844ca1e" x="34.6925" y="171.019847" style="fill: #5c6473; stroke: #5c6473; stroke-width: 0.8"/>
      </g>
     </g>
     <g id="text_8">
      <!-- 1 -->
      <g style="fill: #5c6473" transform="translate(22.133125 174.59016) scale(0.1 -0.1)">
       <use xlink:href="#HelveticaNeue-31"/>
      </g>
     </g>
    </g>
    <g id="ytick_3">
     <g id="line2d_15">
      <path d="M 34.6925 139.516031 
L 625.62375 139.516031 
" clip-path="url(#pdae18b7ef3)" style="fill: none; stroke: #d7d2c5; stroke-opacity: 0.5; stroke-width: 0.8; stroke-linecap: square"/>
     </g>
     <g id="line2d_16">
      <g>
       <use xlink:href="#mcfd844ca1e" x="34.6925" y="139.516031" style="fill: #5c6473; stroke: #5c6473; stroke-width: 0.8"/>
      </g>
     </g>
     <g id="text_9">
      <!-- 2 -->
      <g style="fill: #5c6473" transform="translate(22.133125 143.086343) scale(0.1 -0.1)">
       <use xlink:href="#HelveticaNeue-32"/>
      </g>
     </g>
    </g>
    <g id="ytick_4">
     <g id="line2d_17">
      <path d="M 34.6925 108.012214 
L 625.62375 108.012214 
" clip-path="url(#pdae18b7ef3)" style="fill: none; stroke: #d7d2c5; stroke-opacity: 0.5; stroke-width: 0.8; stroke-linecap: square"/>
     </g>
     <g id="line2d_18">
      <g>
       <use xlink:href="#mcfd844ca1e" x="34.6925" y="108.012214" style="fill: #5c6473; stroke: #5c6473; stroke-width: 0.8"/>
      </g>
     </g>
     <g id="text_10">
      <!-- 3 -->
      <g style="fill: #5c6473" transform="translate(22.133125 111.582526) scale(0.1 -0.1)">
       <defs>
        <path id="HelveticaNeue-33" d="M 1395 2592 
L 1395 2131 
Q 1549 2150 1722 2150 
Q 1926 2150 2102 2096 
Q 2278 2042 2406 1930 
Q 2534 1818 2611 1654 
Q 2688 1491 2688 1280 
Q 2688 1075 2608 912 
Q 2528 749 2393 637 
Q 2259 525 2080 464 
Q 1901 403 1702 403 
Q 1235 403 992 681 
Q 749 960 736 1402 
L 192 1402 
Q 186 1050 291 774 
Q 397 499 595 310 
Q 794 122 1075 26 
Q 1357 -70 1702 -70 
Q 2022 -70 2307 16 
Q 2592 102 2803 275 
Q 3014 448 3139 707 
Q 3264 966 3264 1306 
Q 3264 1715 3062 2016 
Q 2861 2317 2445 2406 
L 2445 2419 
Q 2714 2541 2893 2777 
Q 3072 3014 3072 3322 
Q 3072 3635 2966 3865 
Q 2861 4096 2675 4243 
Q 2490 4390 2237 4464 
Q 1984 4538 1690 4538 
Q 1350 4538 1091 4429 
Q 832 4320 659 4128 
Q 486 3936 393 3667 
Q 301 3398 288 3072 
L 832 3072 
Q 832 3270 883 3449 
Q 934 3629 1040 3763 
Q 1146 3898 1309 3978 
Q 1472 4058 1690 4058 
Q 2035 4058 2265 3875 
Q 2496 3693 2496 3328 
Q 2496 3149 2425 3008 
Q 2355 2867 2236 2774 
Q 2118 2682 1961 2634 
Q 1805 2586 1632 2586 
L 1517 2586 
Q 1485 2586 1453 2586 
Q 1427 2586 1395 2592 
z
" transform="scale(0.015625)"/>
       </defs>
       <use xlink:href="#HelveticaNeue-33"/>
      </g>
     </g>
    </g>
    <g id="ytick_5">
     <g id="line2d_19">
      <path d="M 34.6925 76.508397 
L 625.62375 76.508397 
" clip-path="url(#pdae18b7ef3)" style="fill: none; stroke: #d7d2c5; stroke-opacity: 0.5; stroke-width: 0.8; stroke-linecap: square"/>
     </g>
     <g id="line2d_20">
      <g>
       <use xlink:href="#mcfd844ca1e" x="34.6925" y="76.508397" style="fill: #5c6473; stroke: #5c6473; stroke-width: 0.8"/>
      </g>
     </g>
     <g id="text_11">
      <!-- 4 -->
      <g style="fill: #5c6473" transform="translate(22.133125 80.078709) scale(0.1 -0.1)">
       <defs>
        <path id="HelveticaNeue-34" d="M 2170 1542 
L 646 1542 
L 2157 3763 
L 2170 3763 
L 2170 1542 
z
M 2682 1542 
L 2682 4538 
L 2246 4538 
L 179 1587 
L 179 1062 
L 2170 1062 
L 2170 0 
L 2682 0 
L 2682 1062 
L 3296 1062 
L 3296 1542 
L 2682 1542 
z
" transform="scale(0.015625)"/>
       </defs>
       <use xlink:href="#HelveticaNeue-34"/>
      </g>
     </g>
    </g>
    <g id="ytick_6">
     <g id="line2d_21">
      <path d="M 34.6925 45.00458 
L 625.62375 45.00458 
" clip-path="url(#pdae18b7ef3)" style="fill: none; stroke: #d7d2c5; stroke-opacity: 0.5; stroke-width: 0.8; stroke-linecap: square"/>
     </g>
     <g id="line2d_22">
      <g>
       <use xlink:href="#mcfd844ca1e" x="34.6925" y="45.00458" style="fill: #5c6473; stroke: #5c6473; stroke-width: 0.8"/>
      </g>
     </g>
     <g id="text_12">
      <!-- 5 -->
      <g style="fill: #5c6473" transform="translate(22.133125 48.574893) scale(0.1 -0.1)">
       <use xlink:href="#HelveticaNeue-35"/>
      </g>
     </g>
    </g>
    <g id="ytick_7">
     <g id="line2d_23">
      <path d="M 34.6925 13.500763 
L 625.62375 13.500763 
" clip-path="url(#pdae18b7ef3)" style="fill: none; stroke: #d7d2c5; stroke-opacity: 0.5; stroke-width: 0.8; stroke-linecap: square"/>
     </g>
     <g id="line2d_24">
      <g>
       <use xlink:href="#mcfd844ca1e" x="34.6925" y="13.500763" style="fill: #5c6473; stroke: #5c6473; stroke-width: 0.8"/>
      </g>
     </g>
     <g id="text_13">
      <!-- 6 -->
      <g style="fill: #5c6473" transform="translate(22.133125 17.071076) scale(0.1 -0.1)">
       <defs>
        <path id="HelveticaNeue-36" d="M 2650 3379 
L 3194 3379 
Q 3142 3942 2809 4240 
Q 2477 4538 1914 4538 
Q 1427 4538 1107 4333 
Q 787 4128 595 3789 
Q 403 3450 323 3011 
Q 243 2573 243 2106 
Q 243 1747 297 1363 
Q 352 979 518 659 
Q 685 339 992 134 
Q 1299 -70 1805 -70 
Q 2234 -70 2525 74 
Q 2816 218 2992 438 
Q 3168 659 3245 928 
Q 3322 1197 3322 1446 
Q 3322 1760 3226 2029 
Q 3130 2298 2954 2496 
Q 2778 2694 2518 2806 
Q 2259 2918 1933 2918 
Q 1562 2918 1277 2777 
Q 992 2637 800 2323 
L 787 2336 
Q 794 2598 838 2899 
Q 883 3200 1001 3459 
Q 1120 3718 1331 3888 
Q 1542 4058 1888 4058 
Q 2214 4058 2412 3872 
Q 2611 3686 2650 3379 
z
M 1830 2438 
Q 2061 2438 2233 2355 
Q 2406 2272 2521 2134 
Q 2637 1997 2691 1808 
Q 2746 1619 2746 1408 
Q 2746 1210 2685 1027 
Q 2624 845 2509 704 
Q 2394 563 2224 483 
Q 2054 403 1830 403 
Q 1606 403 1430 483 
Q 1254 563 1136 697 
Q 1018 832 954 1017 
Q 890 1203 890 1414 
Q 890 1626 950 1814 
Q 1011 2003 1132 2140 
Q 1254 2278 1427 2358 
Q 1600 2438 1830 2438 
z
" transform="scale(0.015625)"/>
       </defs>
       <use xlink:href="#HelveticaNeue-36"/>
      </g>
     </g>
    </g>
    <g id="text_14">
     <!-- loss $L$ -->
     <g style="fill: #0e1a2b" transform="translate(15.76875 126.215) rotate(-90) scale(0.12 -0.12)">
      <defs>
       <path id="HelveticaNeue-6c" d="M 442 4570 
L 442 0 
L 986 0 
L 986 4570 
L 442 4570 
z
" transform="scale(0.015625)"/>
       <path id="HelveticaNeue-6f" d="M 806 1651 
Q 806 1952 886 2185 
Q 966 2419 1107 2579 
Q 1248 2739 1437 2822 
Q 1626 2906 1837 2906 
Q 2048 2906 2237 2822 
Q 2426 2739 2566 2579 
Q 2707 2419 2787 2185 
Q 2867 1952 2867 1651 
Q 2867 1350 2787 1116 
Q 2707 883 2566 726 
Q 2426 570 2237 486 
Q 2048 403 1837 403 
Q 1626 403 1437 486 
Q 1248 570 1107 726 
Q 966 883 886 1116 
Q 806 1350 806 1651 
z
M 230 1651 
Q 230 1286 332 972 
Q 435 659 640 425 
Q 845 192 1145 61 
Q 1446 -70 1837 -70 
Q 2234 -70 2531 61 
Q 2829 192 3033 425 
Q 3238 659 3340 972 
Q 3443 1286 3443 1651 
Q 3443 2016 3340 2333 
Q 3238 2650 3033 2883 
Q 2829 3117 2531 3251 
Q 2234 3386 1837 3386 
Q 1446 3386 1145 3251 
Q 845 3117 640 2883 
Q 435 2650 332 2333 
Q 230 2016 230 1651 
z
" transform="scale(0.015625)"/>
       <path id="HelveticaNeue-73" d="M 742 1043 
L 198 1043 
Q 211 736 326 521 
Q 442 307 634 176 
Q 826 45 1075 -12 
Q 1325 -70 1600 -70 
Q 1850 -70 2102 -22 
Q 2355 26 2556 147 
Q 2758 269 2883 467 
Q 3008 666 3008 966 
Q 3008 1203 2915 1363 
Q 2822 1523 2672 1628 
Q 2522 1734 2326 1798 
Q 2131 1862 1926 1907 
Q 1734 1952 1542 1993 
Q 1350 2035 1196 2096 
Q 1043 2157 944 2249 
Q 845 2342 845 2483 
Q 845 2611 909 2691 
Q 973 2771 1075 2819 
Q 1178 2867 1302 2886 
Q 1427 2906 1549 2906 
Q 1683 2906 1814 2877 
Q 1946 2848 2054 2784 
Q 2163 2720 2233 2614 
Q 2304 2509 2317 2349 
L 2861 2349 
Q 2842 2650 2733 2851 
Q 2624 3053 2441 3171 
Q 2259 3290 2022 3338 
Q 1786 3386 1504 3386 
Q 1286 3386 1065 3331 
Q 845 3277 669 3165 
Q 493 3053 381 2873 
Q 269 2694 269 2445 
Q 269 2125 429 1945 
Q 589 1766 829 1667 
Q 1069 1568 1350 1513 
Q 1632 1459 1872 1392 
Q 2112 1325 2272 1216 
Q 2432 1107 2432 896 
Q 2432 742 2355 643 
Q 2278 544 2160 493 
Q 2042 442 1901 422 
Q 1760 403 1632 403 
Q 1466 403 1309 435 
Q 1152 467 1027 540 
Q 902 614 825 739 
Q 749 864 742 1043 
z
" transform="scale(0.015625)"/>
       <path id="HelveticaNeue-20" transform="scale(0.015625)"/>
       <path id="DejaVuSans-Oblique-4c" d="M 1075 4666 
L 1709 4666 
L 909 525 
L 3181 525 
L 3078 0 
L 172 0 
L 1075 4666 
z
" transform="scale(0.015625)"/>
      </defs>
      <use xlink:href="#HelveticaNeue-6c" transform="translate(0 0.09375)"/>
      <use xlink:href="#HelveticaNeue-6f" transform="translate(22.199997 0.09375)"/>
      <use xlink:href="#HelveticaNeue-73" transform="translate(79.599991 0.09375)"/>
      <use xlink:href="#HelveticaNeue-73" transform="translate(129.599976 0.09375)"/>
      <use xlink:href="#HelveticaNeue-20" transform="translate(179.59996 0.09375)"/>
      <use xlink:href="#DejaVuSans-Oblique-4c" transform="translate(207.399948 0.09375)"/>
     </g>
    </g>
   </g>
   <g id="line2d_25">
    <path d="M 54.595249 -1 
L 62.832083 9.357404 
L 71.718268 20.226936 
L 80.604452 30.781733 
L 89.490636 41.021794 
L 98.37682 50.94712 
L 107.263004 60.557711 
L 116.149189 69.853566 
L 125.035373 78.834686 
L 133.921557 87.50107 
L 142.807741 95.852719 
L 151.693925 103.889633 
L 160.58011 111.611811 
L 169.466294 119.019254 
L 178.352478 126.111961 
L 187.238662 132.889933 
L 196.124846 139.353169 
L 205.011031 145.501671 
L 213.897215 151.335436 
L 222.783399 156.854467 
L 230.188553 161.213236 
L 237.593706 165.353439 
L 244.99886 169.275075 
L 252.404013 172.978146 
L 259.809167 176.46265 
L 267.21432 179.728587 
L 274.619474 182.775959 
L 282.024627 185.604764 
L 289.429781 188.215003 
L 296.834934 190.606676 
L 304.240088 192.779783 
L 311.645241 194.734323 
L 319.050395 196.470297 
L 326.455548 197.987705 
L 333.860702 199.286547 
L 341.265855 200.366822 
L 348.671009 201.228531 
L 356.076162 201.871674 
L 363.481316 202.29625 
L 370.886469 202.502261 
L 378.291623 202.489705 
L 385.696776 202.258583 
L 393.10193 201.808894 
L 400.507083 201.140639 
L 407.912237 200.253818 
L 415.31739 199.148431 
L 422.722544 197.824478 
L 430.127697 196.281958 
L 437.532851 194.520872 
L 444.938004 192.54122 
L 452.343158 190.343002 
L 459.748311 187.926217 
L 467.153465 185.290866 
L 474.558618 182.436949 
L 481.963772 179.364465 
L 489.368925 176.073416 
L 496.774079 172.5638 
L 504.179232 168.835618 
L 511.584386 164.888869 
L 518.989539 160.723554 
L 526.394693 156.339673 
L 533.799846 151.737226 
L 542.686031 145.925782 
L 551.572215 139.799603 
L 560.458399 133.358688 
L 569.344583 126.603038 
L 578.230768 119.532652 
L 587.116952 112.147531 
L 596.003136 104.447674 
L 604.88932 96.433082 
L 613.775504 88.103755 
L 622.661689 79.459692 
L 625.62375 76.508397 
L 625.62375 76.508397 
" clip-path="url(#pdae18b7ef3)" style="fill: none; stroke: #0e1a2b; stroke-width: 2.4; stroke-linecap: square"/>
   </g>
   <g id="patch_3">
    <path d="M 34.6925 213.55 
L 34.6925 7.2 
" style="fill: none; stroke: #d7d2c5; stroke-width: 0.8; stroke-linejoin: miter; stroke-linecap: square"/>
   </g>
   <g id="patch_4">
    <path d="M 34.6925 213.55 
L 625.62375 213.55 
" style="fill: none; stroke: #d7d2c5; stroke-width: 0.8; stroke-linejoin: miter; stroke-linecap: square"/>
   </g>
   <g id="patch_5">
    <path d="M 127.384649 80.261781 
Q 172.996198 116.833795 217.037669 152.146897 
" style="fill: none; stroke: #c9322b; stroke-width: 1.8; stroke-linecap: round"/>
    <path d="M 215.168074 148.08431 
L 217.037669 152.146897 
L 212.665842 151.205021 
" style="fill: none; stroke: #c9322b; stroke-width: 1.8; stroke-linecap: round"/>
   </g>
   <g id="patch_6">
    <path d="M 228.691271 159.757824 
Q 253.459893 171.673732 276.415006 182.717181 
" style="fill: none; stroke: #c9322b; stroke-width: 1.8; stroke-linecap: round"/>
    <path d="M 273.677503 179.180788 
L 276.415006 182.717181 
L 271.94339 182.785347 
" style="fill: none; stroke: #c9322b; stroke-width: 1.8; stroke-linecap: round"/>
   </g>
   <g id="patch_7">
    <path d="M 289.406363 187.857141 
Q 301.745513 191.418878 312.151143 194.422497 
" style="fill: none; stroke: #c9322b; stroke-width: 1.8; stroke-linecap: round"/>
    <path d="M 308.862706 191.391625 
L 312.151143 194.422497 
L 307.753383 195.234723 
" style="fill: none; stroke: #c9322b; stroke-width: 1.8; stroke-linecap: round"/>
   </g>
   <g id="patch_8">
    <path d="M 325.759832 197.668133 
Q 330.711542 198.525729 333.680309 199.039896 
" style="fill: none; stroke: #c9322b; stroke-width: 1.8; stroke-linecap: round"/>
    <path d="M 330.080287 196.386627 
L 333.680309 199.039896 
L 329.397681 200.327953 
" style="fill: none; stroke: #c9322b; stroke-width: 1.8; stroke-linecap: round"/>
   </g>
   <g id="patch_9">
    <path d="M 347.54168 201.027181 
Q 348.092175 201.084386 346.640987 200.933586 
" style="fill: none; stroke: #c9322b; stroke-width: 1.8; stroke-linecap: round"/>
    <path d="M 342.869128 198.530863 
L 346.640987 200.933586 
L 342.455694 202.509439 
" style="fill: none; stroke: #c9322b; stroke-width: 1.8; stroke-linecap: round"/>
   </g>
   <g id="text_15">
    <!-- start -->
    <g style="fill: #c9322b" transform="translate(138.703537 36.890858) scale(0.115 -0.115)">
     <defs>
      <path id="HelveticaNeue-74" d="M 1165 3309 
L 1165 4301 
L 621 4301 
L 621 3309 
L 58 3309 
L 58 2829 
L 621 2829 
L 621 723 
Q 621 493 665 352 
Q 710 211 803 134 
Q 896 58 1046 29 
Q 1197 0 1408 0 
L 1824 0 
L 1824 480 
L 1574 480 
Q 1446 480 1366 489 
Q 1286 499 1241 531 
Q 1197 563 1181 620 
Q 1165 678 1165 774 
L 1165 2829 
L 1824 2829 
L 1824 3309 
L 1165 3309 
z
" transform="scale(0.015625)"/>
      <path id="HelveticaNeue-61" d="M 3341 13 
Q 3200 -70 2950 -70 
Q 2739 -70 2614 48 
Q 2490 166 2490 435 
Q 2266 166 1968 48 
Q 1670 -70 1325 -70 
Q 1101 -70 899 -19 
Q 698 32 550 141 
Q 403 250 316 426 
Q 230 602 230 851 
Q 230 1133 326 1312 
Q 422 1491 579 1603 
Q 736 1715 937 1772 
Q 1139 1830 1350 1869 
Q 1574 1914 1776 1936 
Q 1978 1958 2131 2000 
Q 2285 2042 2374 2122 
Q 2464 2202 2464 2355 
Q 2464 2534 2397 2643 
Q 2330 2752 2224 2809 
Q 2118 2867 1987 2886 
Q 1856 2906 1728 2906 
Q 1382 2906 1152 2774 
Q 922 2643 902 2278 
L 358 2278 
Q 371 2586 486 2797 
Q 602 3008 794 3139 
Q 986 3270 1232 3328 
Q 1478 3386 1760 3386 
Q 1984 3386 2205 3354 
Q 2426 3322 2605 3222 
Q 2784 3123 2893 2944 
Q 3002 2765 3002 2477 
L 3002 774 
Q 3002 582 3024 492 
Q 3046 403 3174 403 
Q 3245 403 3341 435 
L 3341 13 
z
M 2458 1709 
Q 2355 1632 2188 1597 
Q 2022 1562 1840 1539 
Q 1658 1517 1472 1488 
Q 1286 1459 1139 1395 
Q 992 1331 899 1212 
Q 806 1094 806 890 
Q 806 755 860 662 
Q 915 570 1001 512 
Q 1088 454 1203 428 
Q 1318 403 1446 403 
Q 1715 403 1907 476 
Q 2099 550 2220 662 
Q 2342 774 2400 905 
Q 2458 1037 2458 1152 
L 2458 1709 
z
" transform="scale(0.015625)"/>
      <path id="HelveticaNeue-72" d="M 390 3309 
L 390 0 
L 934 0 
L 934 1472 
Q 934 1792 998 2038 
Q 1062 2285 1203 2457 
Q 1344 2630 1574 2720 
Q 1805 2810 2131 2810 
L 2131 3386 
Q 1690 3398 1402 3206 
Q 1114 3014 915 2611 
L 902 2611 
L 902 3309 
L 390 3309 
z
" transform="scale(0.015625)"/>
     </defs>
     <use xlink:href="#HelveticaNeue-73"/>
     <use xlink:href="#HelveticaNeue-74" x="49.999985"/>
     <use xlink:href="#HelveticaNeue-61" x="81.499969"/>
     <use xlink:href="#HelveticaNeue-72" x="135.199966"/>
     <use xlink:href="#HelveticaNeue-74" x="168.499954"/>
    </g>
    <!-- $w = 0$, $L = 4$ -->
    <g style="fill: #c9322b" transform="translate(138.703537 50.242538) scale(0.115 -0.115)">
     <defs>
      <path id="DejaVuSans-3d" d="M 678 2906 
L 4684 2906 
L 4684 2381 
L 678 2381 
L 678 2906 
z
M 678 1631 
L 4684 1631 
L 4684 1100 
L 678 1100 
L 678 1631 
z
" transform="scale(0.015625)"/>
      <path id="DejaVuSans-30" d="M 2034 4250 
Q 1547 4250 1301 3770 
Q 1056 3291 1056 2328 
Q 1056 1369 1301 889 
Q 1547 409 2034 409 
Q 2525 409 2770 889 
Q 3016 1369 3016 2328 
Q 3016 3291 2770 3770 
Q 2525 4250 2034 4250 
z
M 2034 4750 
Q 2819 4750 3233 4129 
Q 3647 3509 3647 2328 
Q 3647 1150 3233 529 
Q 2819 -91 2034 -91 
Q 1250 -91 836 529 
Q 422 1150 422 2328 
Q 422 3509 836 4129 
Q 1250 4750 2034 4750 
z
" transform="scale(0.015625)"/>
      <path id="HelveticaNeue-2c" d="M 531 710 
L 531 0 
L 909 0 
Q 915 -77 899 -166 
Q 883 -256 838 -342 
Q 794 -429 720 -502 
Q 646 -576 538 -614 
L 538 -934 
Q 909 -826 1075 -563 
Q 1242 -301 1242 64 
L 1242 710 
L 531 710 
z
" transform="scale(0.015625)"/>
      <path id="DejaVuSans-34" d="M 2419 4116 
L 825 1625 
L 2419 1625 
L 2419 4116 
z
M 2253 4666 
L 3047 4666 
L 3047 1625 
L 3713 1625 
L 3713 1100 
L 3047 1100 
L 3047 0 
L 2419 0 
L 2419 1100 
L 313 1100 
L 313 1709 
L 2253 4666 
z
" transform="scale(0.015625)"/>
     </defs>
     <use xlink:href="#DejaVuSans-Oblique-77" transform="translate(0 0.78125)"/>
     <use xlink:href="#DejaVuSans-3d" transform="translate(101.269531 0.78125)"/>
     <use xlink:href="#DejaVuSans-30" transform="translate(204.541016 0.78125)"/>
     <use xlink:href="#HelveticaNeue-2c" transform="translate(268.164062 0.78125)"/>
     <use xlink:href="#HelveticaNeue-20" transform="translate(295.96405 0.78125)"/>
     <use xlink:href="#DejaVuSans-Oblique-4c" transform="translate(323.764038 0.78125)"/>
     <use xlink:href="#DejaVuSans-3d" transform="translate(398.959351 0.78125)"/>
     <use xlink:href="#DejaVuSans-34" transform="translate(502.230835 0.78125)"/>
    </g>
   </g>
   <g id="text_16">
    <!-- minimum -->
    <g style="fill: #1a6fb4" transform="translate(386.163644 171.171984) scale(0.115 -0.115)">
     <defs>
      <path id="HelveticaNeue-6d" d="M 410 3309 
L 410 0 
L 954 0 
L 954 2061 
Q 954 2157 1002 2301 
Q 1050 2445 1155 2579 
Q 1261 2714 1430 2810 
Q 1600 2906 1837 2906 
Q 2022 2906 2140 2851 
Q 2259 2797 2329 2697 
Q 2400 2598 2429 2464 
Q 2458 2330 2458 2170 
L 2458 0 
L 3002 0 
L 3002 2061 
Q 3002 2445 3232 2675 
Q 3462 2906 3866 2906 
Q 4064 2906 4189 2848 
Q 4314 2790 4384 2691 
Q 4454 2592 4480 2457 
Q 4506 2323 4506 2170 
L 4506 0 
L 5050 0 
L 5050 2426 
Q 5050 2682 4970 2864 
Q 4890 3046 4746 3161 
Q 4602 3277 4400 3331 
Q 4198 3386 3949 3386 
Q 3622 3386 3350 3238 
Q 3078 3091 2912 2822 
Q 2810 3130 2560 3258 
Q 2310 3386 2003 3386 
Q 1306 3386 934 2822 
L 922 2822 
L 922 3309 
L 410 3309 
z
" transform="scale(0.015625)"/>
      <path id="HelveticaNeue-69" d="M 986 3904 
L 986 4570 
L 442 4570 
L 442 3904 
L 986 3904 
z
M 442 3309 
L 442 0 
L 986 0 
L 986 3309 
L 442 3309 
z
" transform="scale(0.015625)"/>
      <path id="HelveticaNeue-6e" d="M 410 3309 
L 410 0 
L 954 0 
L 954 1869 
Q 954 2093 1014 2281 
Q 1075 2470 1196 2611 
Q 1318 2752 1500 2829 
Q 1683 2906 1933 2906 
Q 2246 2906 2425 2726 
Q 2605 2547 2605 2240 
L 2605 0 
L 3149 0 
L 3149 2176 
Q 3149 2445 3094 2665 
Q 3040 2886 2905 3046 
Q 2771 3206 2553 3296 
Q 2336 3386 2010 3386 
Q 1274 3386 934 2784 
L 922 2784 
L 922 3309 
L 410 3309 
z
" transform="scale(0.015625)"/>
      <path id="HelveticaNeue-75" d="M 3149 0 
L 3149 3309 
L 2605 3309 
L 2605 1440 
Q 2605 1216 2544 1027 
Q 2483 838 2361 697 
Q 2240 557 2057 480 
Q 1875 403 1626 403 
Q 1312 403 1133 582 
Q 954 762 954 1069 
L 954 3309 
L 410 3309 
L 410 1133 
Q 410 864 464 643 
Q 518 422 652 262 
Q 787 102 1004 16 
Q 1222 -70 1549 -70 
Q 1914 -70 2182 74 
Q 2451 218 2624 525 
L 2637 525 
L 2637 0 
L 3149 0 
z
" transform="scale(0.015625)"/>
     </defs>
     <use xlink:href="#HelveticaNeue-6d"/>
     <use xlink:href="#HelveticaNeue-69" x="85.299988"/>
     <use xlink:href="#HelveticaNeue-6e" x="107.499985"/>
     <use xlink:href="#HelveticaNeue-69" x="163.099976"/>
     <use xlink:href="#HelveticaNeue-6d" x="185.299973"/>
     <use xlink:href="#HelveticaNeue-75" x="270.59996"/>
     <use xlink:href="#HelveticaNeue-6d" x="326.199951"/>
    </g>
    <!-- w = 1, L = 0 -->
    <g style="fill: #1a6fb4" transform="translate(386.163644 184.523664) scale(0.115 -0.115)">
     <defs>
      <path id="HelveticaNeue-77" d="M 3686 0 
L 4742 3309 
L 4179 3309 
L 3437 602 
L 3424 602 
L 2733 3309 
L 2138 3309 
L 1472 602 
L 1459 602 
L 710 3309 
L 109 3309 
L 1171 0 
L 1760 0 
L 2426 2630 
L 2438 2630 
L 3110 0 
L 3686 0 
z
" transform="scale(0.015625)"/>
      <path id="HelveticaNeue-3d" d="M 307 1190 
L 307 755 
L 3533 755 
L 3533 1190 
L 307 1190 
z
M 3533 2048 
L 3533 2483 
L 307 2483 
L 307 2048 
L 3533 2048 
z
" transform="scale(0.015625)"/>
      <path id="HelveticaNeue-4c" d="M 499 4570 
L 499 0 
L 3526 0 
L 3526 512 
L 1107 512 
L 1107 4570 
L 499 4570 
z
" transform="scale(0.015625)"/>
     </defs>
     <use xlink:href="#HelveticaNeue-77"/>
     <use xlink:href="#HelveticaNeue-20" x="75.799988"/>
     <use xlink:href="#HelveticaNeue-3d" x="103.599976"/>
     <use xlink:href="#HelveticaNeue-20" x="163.59996"/>
     <use xlink:href="#HelveticaNeue-31" x="191.399948"/>
     <use xlink:href="#HelveticaNeue-2c" x="246.999939"/>
     <use xlink:href="#HelveticaNeue-20" x="274.799927"/>
     <use xlink:href="#HelveticaNeue-4c" x="302.599915"/>
     <use xlink:href="#HelveticaNeue-20" x="358.199905"/>
     <use xlink:href="#HelveticaNeue-3d" x="385.999893"/>
     <use xlink:href="#HelveticaNeue-20" x="445.999878"/>
     <use xlink:href="#HelveticaNeue-30" x="473.799866"/>
    </g>
   </g>
   <g id="line2d_26">
    <defs>
     <path id="mb207bb54fa" d="M 0 4.5 
C 1.193414 4.5 2.338109 4.025852 3.181981 3.181981 
C 4.025852 2.338109 4.5 1.193414 4.5 0 
C 4.5 -1.193414 4.025852 -2.338109 3.181981 -3.181981 
C 2.338109 -4.025852 1.193414 -4.5 0 -4.5 
C -1.193414 -4.5 -2.338109 -4.025852 -3.181981 -3.181981 
C -4.025852 -2.338109 -4.5 -1.193414 -4.5 0 
C -4.5 1.193414 -4.025852 2.338109 -3.181981 3.181981 
C -2.338109 4.025852 -1.193414 4.5 0 4.5 
z
" style="stroke: #fbfaf6; stroke-width: 2"/>
    </defs>
    <g clip-path="url(#pdae18b7ef3)">
     <use xlink:href="#mb207bb54fa" x="122.703537" y="76.508397" style="fill: #c9322b; stroke: #fbfaf6; stroke-width: 2"/>
     <use xlink:href="#mb207bb54fa" x="223.28758" y="157.158168" style="fill: #c9322b; stroke: #fbfaf6; stroke-width: 2"/>
     <use xlink:href="#mb207bb54fa" x="283.638005" y="186.192085" style="fill: #c9322b; stroke: #fbfaf6; stroke-width: 2"/>
     <use xlink:href="#mb207bb54fa" x="319.848261" y="196.644296" style="fill: #c9322b; stroke: #fbfaf6; stroke-width: 2"/>
     <use xlink:href="#mb207bb54fa" x="341.574414" y="200.407092" style="fill: #c9322b; stroke: #fbfaf6; stroke-width: 2"/>
     <use xlink:href="#mb207bb54fa" x="354.610106" y="201.761698" style="fill: #c9322b; stroke: #fbfaf6; stroke-width: 2"/>
    </g>
   </g>
   <g id="line2d_27">
    <defs>
     <path id="mef0c38d439" d="M 0 5 
C 1.326016 5 2.597899 4.473168 3.535534 3.535534 
C 4.473168 2.597899 5 1.326016 5 0 
C 5 -1.326016 4.473168 -2.597899 3.535534 -3.535534 
C 2.597899 -4.473168 1.326016 -5 0 -5 
C -1.326016 -5 -2.597899 -4.473168 -3.535534 -3.535534 
C -4.473168 -2.597899 -5 -1.326016 -5 0 
C -5 1.326016 -4.473168 2.597899 -3.535534 3.535534 
C -2.597899 4.473168 -1.326016 5 0 5 
z
" style="stroke: #fbfaf6; stroke-width: 2"/>
    </defs>
    <g clip-path="url(#pdae18b7ef3)">
     <use xlink:href="#mef0c38d439" x="374.163644" y="202.523664" style="fill: #1a6fb4; stroke: #fbfaf6; stroke-width: 2"/>
    </g>
   </g>
  </g>
 </g>
 <defs>
  <clipPath id="pdae18b7ef3">
   <rect x="34.6925" y="7.2" width="590.93125" height="206.35"/>
  </clipPath>
 </defs>
</svg>
